<svg xmlns="http://www.w3.org/2000/svg" version="1.1" xmlns:xlink="http://www.w3.org/1999/xlink" xmlns:svgjs="http://svgjs.dev/svgjs" width="100%" height="100%" viewBox="0 0 1000 600"><rect width="1000" height="600" x="0" y="0" fill="#234e70"/><g><rect width="333.3333333333333" height="333.3333333333333" y="203.69958703843747" fill="#fbf8be" transform="matrix(0.6887910909177334,0,0,0.6887910909177334,0,44.89501324990468)" x="181.4773254394531"/><path d="M306.63165360207773 445.36625760261927L303.85387590061134 445.36625760261927L303.85387590061134 295.36626172343415L392.4341203807063 295.36626172343415L392.4341203807063 298.14403942490054L306.63165360207773 298.14403942490054L306.63165360207773 377.5807656376686L369.9418370479993 377.5807656376686L369.9418370479993 380.35854333913505L306.63165360207773 380.35854333913505L306.63165360207773 445.36625760261927Z " fill="#234e70" transform="matrix(0.6887910909177334,0,0,0.6887910909177334,0,44.89501324990468)"/><path d="M695.8209892520379 441.90018607435786L598.1439988343549 441.90018607435786L598.1439988343549 298.5373552914391L600.7988660710755 298.5373552914391L600.7988660710755 439.2453188376372L693.1661220153172 439.2453188376372L693.1661220153172 386.95918353666525L695.8209892520379 386.95918353666525L695.8209892520379 441.90018607435786ZM886.7133182034706 331.20697156553024L886.7133182034706 409.5255550487914Q886.7133182034706 425.45475846911563 875.2826398231454 435.4105106068183Q863.8888345988856 445.3662627445211 832.8047640356139 445.3662627445211L832.8047640356139 445.3662627445211Q801.7575666284077 445.3662627445211 790.6218734966069 435.4105106068183Q779.4493072087405 425.45475846911563 779.4493072087405 409.5255550487914L779.4493072087405 409.5255550487914L779.4493072087405 331.20697156553024Q779.4493072087405 315.27776814520587 790.6218734966069 305.3220160075032Q801.7575666284077 295.3662638698005 832.8047640356139 295.3662638698005L832.8047640356139 295.3662638698005Q863.8888345988856 295.3662638698005 875.2826398231454 305.3220160075032Q886.7133182034706 315.27776814520587 886.7133182034706 331.20697156553024L886.7133182034706 331.20697156553024ZM782.1041744454612 331.20697156553024L782.1041744454612 409.5255550487914Q782.1041744454612 424.38543694321424 792.7236433923441 433.52997964747453Q803.343112339227 442.7113955078004 832.8047640356139 442.7113955078004L832.8047640356139 442.7113955078004Q862.3032888880663 442.7113955078004 873.180869927408 433.52997964747453Q884.05845096675 424.38543694321424 884.05845096675 409.5255550487914L884.05845096675 409.5255550487914L884.05845096675 331.20697156553024Q884.05845096675 316.3102165150417 873.180869927408 307.16567381078147Q862.3032888880663 298.02113110652124 832.8047640356139 298.02113110652124L832.8047640356139 298.02113110652124Q803.343112339227 298.02113110652124 792.7236433923441 307.16567381078147Q782.1041744454612 316.3102165150417 782.1041744454612 331.20697156553024L782.1041744454612 331.20697156553024ZM1076.020101444084 441.90018607435786L1023.1808688021287 441.90018607435786Q1008.5790990001647 441.90018607435786 999.2870636716422 440.0565282710796Q989.9950283431197 438.17599731173584 984.6852938696783 434.08307698845806Q979.3755593962368 429.9532835091147 977.3844089686963 423.46360804157507Q975.3932585411557 416.9370594179701 975.3932585411557 407.6450240894476L975.3932585411557 407.6450240894476L975.3932585411557 333.30874146126746Q975.3932585411557 314.46655871176347 983.8740844362359 306.5019570016013Q992.3917834873815 298.5373552914391 1017.8711343286873 298.5373552914391L1017.8711343286873 298.5373552914391L1063.7782136303163 298.5373552914391L1063.7782136303163 301.19222252815985L1017.8711343286873 301.19222252815985Q994.4935533831186 301.19222252815985 986.2708395804976 308.49310742914184Q978.0481257778764 315.79399233012384 978.0481257778764 333.30874146126746L978.0481257778764 333.30874146126746L978.0481257778764 407.6450240894476Q978.0481257778764 424.9016611281322 987.1926684821367 432.0919265609175Q996.3740843424625 439.2453188376372 1023.1808688021287 439.2453188376372L1023.1808688021287 439.2453188376372L1073.3652342073633 439.2453188376372L1073.3652342073633 388.5447292474846L1076.020101444084 388.5447292474846L1076.020101444084 441.90018607435786ZM1270.3416339096143 331.20697156553024L1270.3416339096143 409.5255550487914Q1270.3416339096143 425.45475846911563 1258.9109555292894 435.4105106068183Q1247.5171503050296 445.3662627445211 1216.4330797417579 445.3662627445211L1216.4330797417579 445.3662627445211Q1185.3858823345518 445.3662627445211 1174.2501892027508 435.4105106068183Q1163.0776229148842 425.45475846911563 1163.0776229148842 409.5255550487914L1163.0776229148842 409.5255550487914L1163.0776229148842 331.20697156553024Q1163.0776229148842 315.27776814520587 1174.2501892027508 305.3220160075032Q1185.3858823345518 295.3662638698005 1216.4330797417579 295.3662638698005L1216.4330797417579 295.3662638698005Q1247.5171503050296 295.3662638698005 1258.9109555292894 305.3220160075032Q1270.3416339096143 315.27776814520587 1270.3416339096143 331.20697156553024L1270.3416339096143 331.20697156553024ZM1165.732490151605 331.20697156553024L1165.732490151605 409.5255550487914Q1165.732490151605 424.38543694321424 1176.351959098488 433.52997964747453Q1186.9714280453709 442.7113955078004 1216.4330797417579 442.7113955078004L1216.4330797417579 442.7113955078004Q1245.93160459421 442.7113955078004 1256.8091856335518 433.52997964747453Q1267.686766672894 424.38543694321424 1267.686766672894 409.5255550487914L1267.686766672894 409.5255550487914L1267.686766672894 331.20697156553024Q1267.686766672894 316.3102165150417 1256.8091856335518 307.16567381078147Q1245.93160459421 298.02113110652124 1216.4330797417579 298.02113110652124L1216.4330797417579 298.02113110652124Q1186.9714280453709 298.02113110652124 1176.351959098488 307.16567381078147Q1165.732490151605 316.3102165150417 1165.732490151605 331.20697156553024L1165.732490151605 331.20697156553024Z " fill="#fbf8be" transform="matrix(0.6887910909177334,0,0,0.6887910909177334,0,44.89501324990468)"/></g></svg>